<svg data-v-423bf9ae="" xmlns="http://www.w3.org/2000/svg" viewBox="0 0 386.99706613105207 201" class="iconAboveSlogan"><!----><!----><!----><g data-v-423bf9ae="" id="e748f468-8068-462c-ac12-4bf42427d400" fill="#ffffff" transform="matrix(5.830903271297242,0,0,5.830903271297242,-4.489793793796423,98.54165251970852)"><path d="M5.08 13.94C6.23 13.94 7.21 13.48 7.97 12.59L6.83 11.34C6.38 11.84 5.87 12.17 5.21 12.17C3.84 12.17 2.88 11.05 2.88 9.14C2.88 7.27 3.84 6.15 5.12 6.15C5.78 6.15 6.26 6.41 6.69 6.82L7.83 5.54C7.21 4.93 6.29 4.37 5.12 4.37C2.69 4.37 0.77 6.15 0.77 9.21C0.77 12.31 2.73 13.94 5.08 13.94ZM12.60 13.94C14.43 13.94 16.14 12.59 16.14 10.21C16.14 7.83 14.43 6.45 12.60 6.45C10.77 6.45 9.06 7.83 9.06 10.21C9.06 12.59 10.77 13.94 12.60 13.94ZM12.60 12.28C11.65 12.28 11.17 11.47 11.17 10.21C11.17 8.95 11.65 8.12 12.60 8.12C13.55 8.12 14.03 8.95 14.03 10.21C14.03 11.47 13.55 12.28 12.60 12.28ZM20.38 13.94C21.08 13.94 21.80 13.55 22.32 13.03L22.36 13.03L22.51 13.78L24.19 13.78L24.19 3.65L22.13 3.65L22.13 6.12L22.20 7.24C21.71 6.76 21.22 6.45 20.43 6.45C18.91 6.45 17.46 7.87 17.46 10.21C17.46 12.54 18.62 13.94 20.38 13.94ZM20.92 12.26C20.06 12.26 19.57 11.61 19.57 10.18C19.57 8.81 20.22 8.13 20.97 8.13C21.38 8.13 21.76 8.27 22.13 8.64L22.13 11.58C21.77 12.07 21.38 12.26 20.92 12.26ZM29.82 13.94C30.74 13.94 31.78 13.62 32.56 13.12L31.89 11.87C31.28 12.21 30.73 12.38 30.10 12.38C29.08 12.38 28.22 11.90 28.08 10.81L32.76 10.81C32.79 10.63 32.84 10.25 32.84 9.88C32.84 7.94 31.72 6.45 29.58 6.45C27.73 6.45 25.97 7.87 25.97 10.21C25.97 12.57 27.66 13.94 29.82 13.94ZM28.06 9.44C28.24 8.48 28.88 8.04 29.62 8.04C30.56 8.04 30.98 8.60 30.98 9.44ZM35.11 13.78L37.17 13.78L37.17 10.18L40.54 10.18L40.54 8.44L37.17 8.44L37.17 6.27L41.13 6.27L41.13 4.54L35.11 4.54ZM47.53 13.94C48.40 13.94 48.89 13.79 49.62 13.55L49.15 12.04C48.72 12.22 48.38 12.28 48.06 12.28C47.49 12.28 46.94 11.98 46.94 11.10L46.94 3.65L42.87 3.65L42.87 5.28L44.88 5.28L44.88 11.00C44.88 12.81 45.78 13.94 47.53 13.94ZM54.60 13.94C56.43 13.94 58.14 12.59 58.14 10.21C58.14 7.83 56.43 6.45 54.60 6.45C52.77 6.45 51.06 7.83 51.06 10.21C51.06 12.59 52.77 13.94 54.60 13.94ZM54.60 12.28C53.65 12.28 53.17 11.47 53.17 10.21C53.17 8.95 53.65 8.12 54.60 8.12C55.55 8.12 56.03 8.95 56.03 10.21C56.03 11.47 55.55 12.28 54.60 12.28ZM60.00 13.78L62.34 13.78L62.72 11.31C62.86 10.35 62.92 9.74 62.97 9.21L63.03 9.21C63.11 9.98 63.20 10.65 63.29 11.31L63.69 13.78L66.07 13.78L67.14 6.64L65.27 6.64L64.85 10.00C64.75 10.70 64.72 11.40 64.62 12.11L64.57 12.11C64.47 11.40 64.36 10.70 64.23 10.00L63.77 7.55L62.33 7.55L61.89 10.00C61.77 10.67 61.66 11.40 61.57 12.11L61.53 12.11C61.43 11.40 61.39 10.70 61.29 10.00L60.87 6.64L58.86 6.64Z"></path></g><!----><g data-v-423bf9ae="" id="a4e32373-b14e-4009-8549-0e1655551195" transform="matrix(1.0894670274522569,0,0,1.0894670274522569,516.617404709001,-280.490068798269)" stroke="none" fill="#00A3DD"><path d="M-246.455 327.152l-16.86-64.454s-1.243-4.756-6.002-4.75l-72.96.08s-4.759.004-3.515 4.761l15.835 60.538c7.148-15.684 15.203-33.301 15.795-34.599l.423-.924 21.84-.021-1.048 2.253c-5.985 12.87-13.768 29.775-19.236 41.944l62.212-.067c.001-.001 4.76-.007 3.516-4.761z"></path><path d="M-296.864 290.954l-14.839.015c-9.094 19.892-25.758 56.396-26.425 58.074-1.594 4.007.346 6.235 1.171 6.957h56.176l-1.875-4.804h-35.137c-.044.002-.107.005-.184.005-1.988 0-3.998-1.204-4.006-3.894-.002-.629-.004-1.579 13.149-30.369a5464.845 5464.845 0 0111.97-25.984z"></path></g><!----><g data-v-423bf9ae="" id="c73fe833-032e-44f2-a9b0-9710f65727ae" fill="#ffffff" transform="matrix(0.9340836669845547,0,0,0.9340836669845547,48.9505856568486,217.99769081593436)"><path d="M1.13 2.21L1.13 11.48L7.24 11.48L7.24 10.47L2.18 10.47L2.18 2.21ZM22.41 3.22L22.41 2.21L15.60 2.21L15.60 11.48L22.41 11.48L22.41 10.47L16.65 10.47L16.65 7.35L21.80 7.35L21.80 6.33L16.65 6.33L16.65 3.22ZM35.27 2.21L33.95 2.21L30.02 11.48L31.18 11.48L32.31 8.79L36.90 8.79L38.04 11.48L39.20 11.48ZM32.72 7.83L34.61 3.30L36.50 7.83ZM48.43 7.92L51.65 7.92L53.89 11.48L55.13 11.48L52.70 7.74C53.73 7.50 54.94 6.90 54.94 5.11C54.94 3.35 53.72 2.21 51.81 2.21L47.38 2.21L47.38 11.48L48.43 11.48ZM48.43 3.21L51.69 3.21C53.00 3.21 53.89 3.93 53.89 5.11C53.89 6.55 52.63 6.93 51.63 6.93L48.43 6.93ZM70.69 2.21L70.69 10.01L64.96 2.21L63.74 2.21L63.74 11.48L64.79 11.48L64.79 3.65L70.52 11.48L71.74 11.48L71.74 2.21ZM80.61 10.05L80.61 11.48L81.97 11.48L81.97 10.05ZM101.88 8.18L105 8.18C106.97 8.18 108.19 7.03 108.19 5.19C108.19 3.37 106.97 2.21 105 2.21L100.83 2.21L100.83 11.48L101.88 11.48ZM104.93 3.21C106.39 3.21 107.14 3.96 107.14 5.19C107.14 6.44 106.39 7.20 104.93 7.20L101.88 7.20L101.88 3.21ZM117.67 7.92L120.89 7.92L123.13 11.48L124.38 11.48L121.94 7.74C122.98 7.50 124.18 6.90 124.18 5.11C124.18 3.35 122.96 2.21 121.06 2.21L116.62 2.21L116.62 11.48L117.67 11.48ZM117.67 3.21L120.93 3.21C122.25 3.21 123.13 3.93 123.13 5.11C123.13 6.55 121.87 6.93 120.88 6.93L117.67 6.93ZM137.14 2.21L135.83 2.21L131.89 11.48L133.06 11.48L134.19 8.79L138.78 8.79L139.92 11.48L141.08 11.48ZM134.60 7.83L136.49 3.30L138.38 7.83ZM153.05 10.57C150.79 10.57 149.53 8.93 149.53 6.85C149.53 4.76 150.79 3.12 153.05 3.12C154.57 3.12 155.58 3.85 156.06 4.98L157.16 4.98C156.58 3.29 155.06 2.10 152.96 2.10C150.18 2.10 148.48 4.21 148.48 6.85C148.48 9.48 150.18 11.59 152.96 11.59C155.06 11.59 156.58 10.40 157.16 8.71L156.06 8.71C155.58 9.84 154.57 10.57 153.05 10.57ZM172.23 2.21L164.71 2.21L164.71 3.22L167.94 3.22L167.94 11.48L168.99 11.48L168.99 3.22L172.23 3.22ZM181.61 2.21L180.56 2.21L180.56 11.48L181.61 11.48ZM194.85 10.57C192.60 10.57 191.34 8.93 191.34 6.85C191.34 4.76 192.60 3.12 194.85 3.12C196.38 3.12 197.39 3.85 197.86 4.98L198.97 4.98C198.38 3.29 196.87 2.10 194.77 2.10C191.98 2.10 190.29 4.21 190.29 6.85C190.29 9.48 191.98 11.59 194.77 11.59C196.87 11.59 198.38 10.40 198.97 8.71L197.86 8.71C197.39 9.84 196.38 10.57 194.85 10.57ZM214.35 3.22L214.35 2.21L207.54 2.21L207.54 11.48L214.35 11.48L214.35 10.47L208.59 10.47L208.59 7.35L213.74 7.35L213.74 6.33L208.59 6.33L208.59 3.22ZM222.66 10.05L222.66 11.48L224.01 11.48L224.01 10.05ZM249.69 3.22L249.69 2.21L242.87 2.21L242.87 11.48L249.69 11.48L249.69 10.47L243.92 10.47L243.92 7.35L249.07 7.35L249.07 6.33L243.92 6.33L243.92 3.22ZM265.62 2.21L264.29 2.21L261.53 5.85L258.79 2.21L257.46 2.21L260.90 6.69L257.21 11.48L258.54 11.48L261.53 7.50L264.54 11.48L265.87 11.48L262.18 6.69ZM277.56 10.57C275.31 10.57 274.05 8.93 274.05 6.85C274.05 4.76 275.31 3.12 277.56 3.12C279.09 3.12 280.10 3.85 280.57 4.98L281.68 4.98C281.09 3.29 279.58 2.10 277.48 2.10C274.69 2.10 273 4.21 273 6.85C273 9.48 274.69 11.59 277.48 11.59C279.58 11.59 281.09 10.40 281.68 8.71L280.57 8.71C280.10 9.84 279.09 10.57 277.56 10.57ZM297.07 3.22L297.07 2.21L290.25 2.21L290.25 11.48L297.07 11.48L297.07 10.47L291.30 10.47L291.30 7.35L296.45 7.35L296.45 6.33L291.30 6.33L291.30 3.22ZM305.76 2.21L305.76 11.48L311.86 11.48L311.86 10.47L306.81 10.47L306.81 2.21Z"></path></g></svg>