<svg data-v-fde0c5aa="" xmlns="http://www.w3.org/2000/svg" viewBox="0 0 300 300" class="font"><!----><defs data-v-fde0c5aa=""><!----></defs><rect data-v-fde0c5aa="" fill="#132554" x="0" y="0" width="300px" height="300px" class="logo-background-square"></rect><defs data-v-fde0c5aa=""><!----></defs><g data-v-fde0c5aa="" id="72000bb8-46c0-426f-a96e-a17cbaed0d13" fill="#00A3DD" transform="matrix(3.314750503175619,0,0,3.314750503175619,37.44764217577862,120.84676749107884)"><path d="M5.08 13.94C6.23 13.94 7.21 13.48 7.97 12.59L6.83 11.34C6.38 11.84 5.87 12.17 5.21 12.17C3.84 12.17 2.88 11.05 2.88 9.14C2.88 7.27 3.84 6.15 5.12 6.15C5.78 6.15 6.26 6.41 6.69 6.82L7.83 5.54C7.21 4.93 6.29 4.37 5.12 4.37C2.69 4.37 0.77 6.15 0.77 9.21C0.77 12.31 2.73 13.94 5.08 13.94ZM12.60 13.94C14.43 13.94 16.14 12.59 16.14 10.21C16.14 7.83 14.43 6.45 12.60 6.45C10.77 6.45 9.06 7.83 9.06 10.21C9.06 12.59 10.77 13.94 12.60 13.94ZM12.60 12.28C11.65 12.28 11.17 11.47 11.17 10.21C11.17 8.95 11.65 8.12 12.60 8.12C13.55 8.12 14.03 8.95 14.03 10.21C14.03 11.47 13.55 12.28 12.60 12.28ZM20.38 13.94C21.08 13.94 21.80 13.55 22.32 13.03L22.36 13.03L22.51 13.78L24.19 13.78L24.19 3.65L22.13 3.65L22.13 6.12L22.20 7.24C21.71 6.76 21.22 6.45 20.43 6.45C18.91 6.45 17.46 7.87 17.46 10.21C17.46 12.54 18.62 13.94 20.38 13.94ZM20.92 12.26C20.06 12.26 19.57 11.61 19.57 10.18C19.57 8.81 20.22 8.13 20.97 8.13C21.38 8.13 21.76 8.27 22.13 8.64L22.13 11.58C21.77 12.07 21.38 12.26 20.92 12.26ZM29.82 13.94C30.74 13.94 31.78 13.62 32.56 13.12L31.89 11.87C31.28 12.21 30.73 12.38 30.10 12.38C29.08 12.38 28.22 11.90 28.08 10.81L32.76 10.81C32.79 10.63 32.84 10.25 32.84 9.88C32.84 7.94 31.72 6.45 29.58 6.45C27.73 6.45 25.97 7.87 25.97 10.21C25.97 12.57 27.66 13.94 29.82 13.94ZM28.06 9.44C28.24 8.48 28.88 8.04 29.62 8.04C30.56 8.04 30.98 8.60 30.98 9.44ZM35.11 13.78L37.17 13.78L37.17 10.18L40.54 10.18L40.54 8.44L37.17 8.44L37.17 6.27L41.13 6.27L41.13 4.54L35.11 4.54ZM47.53 13.94C48.40 13.94 48.89 13.79 49.62 13.55L49.15 12.04C48.72 12.22 48.38 12.28 48.06 12.28C47.49 12.28 46.94 11.98 46.94 11.10L46.94 3.65L42.87 3.65L42.87 5.28L44.88 5.28L44.88 11.00C44.88 12.81 45.78 13.94 47.53 13.94ZM54.60 13.94C56.43 13.94 58.14 12.59 58.14 10.21C58.14 7.83 56.43 6.45 54.60 6.45C52.77 6.45 51.06 7.83 51.06 10.21C51.06 12.59 52.77 13.94 54.60 13.94ZM54.60 12.28C53.65 12.28 53.17 11.47 53.17 10.21C53.17 8.95 53.65 8.12 54.60 8.12C55.55 8.12 56.03 8.95 56.03 10.21C56.03 11.47 55.55 12.28 54.60 12.28ZM60.00 13.78L62.34 13.78L62.72 11.31C62.86 10.35 62.92 9.74 62.97 9.21L63.03 9.21C63.11 9.98 63.20 10.65 63.29 11.31L63.69 13.78L66.07 13.78L67.14 6.64L65.27 6.64L64.85 10.00C64.75 10.70 64.72 11.40 64.62 12.11L64.57 12.11C64.47 11.40 64.36 10.70 64.23 10.00L63.77 7.55L62.33 7.55L61.89 10.00C61.77 10.67 61.66 11.40 61.57 12.11L61.53 12.11C61.43 11.40 61.39 10.70 61.29 10.00L60.87 6.64L58.86 6.64Z"></path></g><!----><!----></svg>